<svg xmlns="http://www.w3.org/2000/svg" version="1.1" xmlns:xlink="http://www.w3.org/1999/xlink" width="1000" height="1000"><g clip-path="url(#SvgjsClipPath1001)"><rect width="1000" height="1000" fill="#ffffff"></rect><g transform="matrix(3.5,0,0,3.5,150,150)"><svg xmlns="http://www.w3.org/2000/svg" version="1.1" xmlns:xlink="http://www.w3.org/1999/xlink" width="200" height="200"><svg xmlns="http://www.w3.org/2000/svg" version="1.1" xmlns:xlink="http://www.w3.org/1999/xlink" viewBox="0 0 200 200"><rect width="200" height="200" fill="url('#gradient')"></rect><defs><linearGradient id="gradient" gradientTransform="rotate(49 0.5 0.5)"><stop offset="0%" stop-color="#f0f3f3"></stop><stop offset="100%" stop-color="#d6e7e5"></stop></linearGradient><clipPath id="SvgjsClipPath1001"><rect width="1000" height="1000" x="0" y="0" rx="350" ry="350"></rect></clipPath></defs><g><g fill="#1935d6" transform="matrix(2.382308577272146,0,0,2.382308577272146,7.508627728347392,113.02997696852266)" stroke="#0a42b2" stroke-width="0.3"><path d="M8.41-3.78L8.41-3.78Q8.41-4.53 7.88-4.95Q7.34-5.37 6.01-5.82Q4.67-6.27 3.82-6.69L3.82-6.69Q1.05-8.05 1.05-10.42L1.05-10.42Q1.05-11.60 1.74-12.50Q2.43-13.41 3.69-13.91Q4.95-14.41 6.52-14.41L6.52-14.41Q8.06-14.41 9.27-13.87Q10.49-13.32 11.16-12.31Q11.84-11.30 11.84-10L11.84-10L8.42-10Q8.42-10.87 7.89-11.35Q7.35-11.83 6.45-11.83L6.45-11.83Q5.53-11.83 5.00-11.42Q4.46-11.02 4.46-10.39L4.46-10.39Q4.46-9.84 5.05-9.40Q5.63-8.96 7.11-8.48Q8.58-8.01 9.53-7.46L9.53-7.46Q11.84-6.13 11.84-3.80L11.84-3.80Q11.84-1.93 10.43-0.87Q9.02 0.20 6.57 0.20L6.57 0.20Q4.84 0.20 3.44-0.42Q2.04-1.04 1.33-2.12Q0.63-3.20 0.63-4.61L0.63-4.61L4.06-4.61Q4.06-3.47 4.65-2.92Q5.24-2.38 6.57-2.38L6.57-2.38Q7.42-2.38 7.92-2.75Q8.41-3.12 8.41-3.78ZM16.91-10.57L16.91 0L13.61 0L13.61-10.57L16.91-10.57ZM13.42-13.29L13.42-13.29Q13.42-13.99 13.93-14.44Q14.43-14.89 15.24-14.89Q16.05-14.89 16.56-14.44Q17.07-13.99 17.07-13.29Q17.07-12.59 16.56-12.14Q16.05-11.69 15.24-11.69Q14.43-11.69 13.93-12.14Q13.42-12.59 13.42-13.29ZM18.96-10.57L22.05-10.57L22.16-9.33Q23.28-10.76 25.18-10.76L25.18-10.76Q27.18-10.76 27.88-9.17L27.88-9.17Q28.96-10.76 30.99-10.76L30.99-10.76Q34.20-10.76 34.29-6.88L34.29-6.88L34.29 0L30.99 0L30.99-6.67Q30.99-7.48 30.71-7.85Q30.44-8.22 29.72-8.22L29.72-8.22Q28.74-8.22 28.26-7.35L28.26-7.35L28.27-7.22L28.27 0L24.97 0L24.97-6.65Q24.97-7.48 24.71-7.85Q24.44-8.22 23.70-8.22L23.70-8.22Q22.75-8.22 22.26-7.35L22.26-7.35L22.26 0L18.96 0L18.96-10.57ZM45.98-5.36L45.98-5.21Q45.98-2.74 44.87-1.27Q43.76 0.20 41.88 0.20L41.88 0.20Q40.42 0.20 39.48-0.87L39.48-0.87L39.48 4.06L36.19 4.06L36.19-10.57L39.27-10.57L39.37-9.59Q40.31-10.76 41.86-10.76L41.86-10.76Q43.81-10.76 44.89-9.32Q45.98-7.88 45.98-5.36L45.98-5.36ZM42.69-5.06L42.69-5.41Q42.69-8.22 41.04-8.22L41.04-8.22Q39.87-8.22 39.48-7.38L39.48-7.38L39.48-3.22Q39.91-2.34 41.06-2.34L41.06-2.34Q42.64-2.34 42.69-5.06L42.69-5.06ZM50.90-15L50.90 0L47.60 0L47.60-15L50.90-15ZM57.75 0L53.08 0L53.08-14.22L57.66-14.22Q59.54-14.22 61.04-13.36Q62.55-12.51 63.39-10.95Q64.24-9.39 64.25-7.46L64.25-7.46L64.25-6.81Q64.25-4.85 63.42-3.31Q62.60-1.76 61.10-0.88Q59.60-0.01 57.75 0L57.75 0ZM57.66-11.57L56.50-11.57L56.50-2.64L57.70-2.64Q59.17-2.64 59.96-3.69Q60.75-4.74 60.75-6.81L60.75-6.81L60.75-7.42Q60.75-9.48 59.96-10.53Q59.17-11.57 57.66-11.57L57.66-11.57ZM71.78 0L66.01 0L66.01-14.22L71.11-14.22Q73.86-14.22 75.29-13.21Q76.72-12.21 76.72-10.29L76.72-10.29Q76.72-9.19 76.21-8.41Q75.70-7.63 74.72-7.26L74.72-7.26Q75.83-6.96 76.43-6.16Q77.02-5.36 77.02-4.21L77.02-4.21Q77.02-2.12 75.70-1.07Q74.38-0.02 71.78 0L71.78 0ZM71.84-6.04L69.43-6.04L69.43-2.64L71.68-2.64Q72.61-2.64 73.11-3.06Q73.60-3.49 73.60-4.26L73.60-4.26Q73.60-6.04 71.84-6.04L71.84-6.04ZM69.43-11.57L69.43-8.29L71.22-8.29Q72.34-8.30 72.82-8.70Q73.30-9.10 73.30-9.88L73.30-9.88Q73.30-10.78 72.78-11.18Q72.27-11.57 71.11-11.57L71.11-11.57L69.43-11.57Z"></path></g></g></svg></svg></g></g></svg>